<mxfile host="app.diagrams.net" modified="2024-03-01T15:42:11.364Z" agent="Mozilla/5.0 (Windows NT 10.0; Win64; x64) AppleWebKit/537.36 (KHTML, like Gecko) Chrome/121.0.0.0 Safari/537.36" etag="P3fR-dI-1G6jTyUB57VQ" version="23.0.2" type="github">
  <diagram name="Page-1" id="ff44883e-f642-bcb2-894b-16b3d25a3f0b">
    <mxGraphModel dx="1433" dy="589" grid="1" gridSize="10" guides="1" tooltips="1" connect="1" arrows="1" fold="1" page="1" pageScale="1.5" pageWidth="1169" pageHeight="826" background="none" math="0" shadow="0">
      <root>
        <mxCell id="0" style=";html=1;" />
        <mxCell id="1" style=";html=1;" parent="0" />
        <mxCell id="6kGKdRxFfdWVgjmYEBeq-3" style="edgeStyle=orthogonalEdgeStyle;rounded=0;orthogonalLoop=1;jettySize=auto;html=1;exitX=1;exitY=0.5;exitDx=0;exitDy=0;entryX=0;entryY=0.5;entryDx=0;entryDy=0;" edge="1" parent="1" source="6kGKdRxFfdWVgjmYEBeq-1" target="6kGKdRxFfdWVgjmYEBeq-2">
          <mxGeometry relative="1" as="geometry" />
        </mxCell>
        <mxCell id="6kGKdRxFfdWVgjmYEBeq-1" value="MASTER" style="rounded=0;whiteSpace=wrap;html=1;" vertex="1" parent="1">
          <mxGeometry x="150" y="520" width="120" height="60" as="geometry" />
        </mxCell>
        <mxCell id="6kGKdRxFfdWVgjmYEBeq-5" style="edgeStyle=orthogonalEdgeStyle;rounded=0;orthogonalLoop=1;jettySize=auto;html=1;exitX=1;exitY=0.5;exitDx=0;exitDy=0;entryX=0;entryY=0.5;entryDx=0;entryDy=0;" edge="1" parent="1" source="6kGKdRxFfdWVgjmYEBeq-2" target="6kGKdRxFfdWVgjmYEBeq-4">
          <mxGeometry relative="1" as="geometry" />
        </mxCell>
        <mxCell id="6kGKdRxFfdWVgjmYEBeq-7" style="edgeStyle=orthogonalEdgeStyle;rounded=0;orthogonalLoop=1;jettySize=auto;html=1;exitX=0.5;exitY=1;exitDx=0;exitDy=0;entryX=0;entryY=0.5;entryDx=0;entryDy=0;" edge="1" parent="1" source="6kGKdRxFfdWVgjmYEBeq-2" target="6kGKdRxFfdWVgjmYEBeq-6">
          <mxGeometry relative="1" as="geometry" />
        </mxCell>
        <mxCell id="6kGKdRxFfdWVgjmYEBeq-2" value="1.0.0" style="ellipse;whiteSpace=wrap;html=1;aspect=fixed;" vertex="1" parent="1">
          <mxGeometry x="360" y="525" width="50" height="50" as="geometry" />
        </mxCell>
        <mxCell id="6kGKdRxFfdWVgjmYEBeq-14" style="edgeStyle=orthogonalEdgeStyle;rounded=0;orthogonalLoop=1;jettySize=auto;html=1;exitX=0.5;exitY=1;exitDx=0;exitDy=0;entryX=0;entryY=0.5;entryDx=0;entryDy=0;" edge="1" parent="1" source="6kGKdRxFfdWVgjmYEBeq-4" target="6kGKdRxFfdWVgjmYEBeq-13">
          <mxGeometry relative="1" as="geometry">
            <Array as="points">
              <mxPoint x="735" y="455" />
            </Array>
          </mxGeometry>
        </mxCell>
        <mxCell id="6kGKdRxFfdWVgjmYEBeq-16" style="edgeStyle=orthogonalEdgeStyle;rounded=0;orthogonalLoop=1;jettySize=auto;html=1;exitX=1;exitY=0.5;exitDx=0;exitDy=0;entryX=0;entryY=0.5;entryDx=0;entryDy=0;" edge="1" parent="1" source="6kGKdRxFfdWVgjmYEBeq-4" target="6kGKdRxFfdWVgjmYEBeq-15">
          <mxGeometry relative="1" as="geometry" />
        </mxCell>
        <mxCell id="6kGKdRxFfdWVgjmYEBeq-4" value="2.0.0" style="ellipse;whiteSpace=wrap;html=1;aspect=fixed;" vertex="1" parent="1">
          <mxGeometry x="710" y="525" width="50" height="50" as="geometry" />
        </mxCell>
        <mxCell id="6kGKdRxFfdWVgjmYEBeq-9" style="edgeStyle=orthogonalEdgeStyle;rounded=0;orthogonalLoop=1;jettySize=auto;html=1;exitX=1;exitY=0.5;exitDx=0;exitDy=0;entryX=0;entryY=0.5;entryDx=0;entryDy=0;" edge="1" parent="1" source="6kGKdRxFfdWVgjmYEBeq-6" target="6kGKdRxFfdWVgjmYEBeq-8">
          <mxGeometry relative="1" as="geometry" />
        </mxCell>
        <mxCell id="6kGKdRxFfdWVgjmYEBeq-6" value="1.1.0" style="ellipse;whiteSpace=wrap;html=1;aspect=fixed;" vertex="1" parent="1">
          <mxGeometry x="410" y="610" width="50" height="50" as="geometry" />
        </mxCell>
        <mxCell id="6kGKdRxFfdWVgjmYEBeq-11" style="edgeStyle=orthogonalEdgeStyle;rounded=0;orthogonalLoop=1;jettySize=auto;html=1;exitX=1;exitY=0.5;exitDx=0;exitDy=0;entryX=0;entryY=0.5;entryDx=0;entryDy=0;" edge="1" parent="1" source="6kGKdRxFfdWVgjmYEBeq-8" target="6kGKdRxFfdWVgjmYEBeq-10">
          <mxGeometry relative="1" as="geometry" />
        </mxCell>
        <mxCell id="6kGKdRxFfdWVgjmYEBeq-8" value="1.2.0" style="ellipse;whiteSpace=wrap;html=1;aspect=fixed;" vertex="1" parent="1">
          <mxGeometry x="510" y="610" width="50" height="50" as="geometry" />
        </mxCell>
        <mxCell id="6kGKdRxFfdWVgjmYEBeq-12" style="edgeStyle=orthogonalEdgeStyle;rounded=0;orthogonalLoop=1;jettySize=auto;html=1;exitX=1;exitY=0.5;exitDx=0;exitDy=0;" edge="1" parent="1" source="6kGKdRxFfdWVgjmYEBeq-10">
          <mxGeometry relative="1" as="geometry">
            <mxPoint x="669.9999999999998" y="550" as="targetPoint" />
          </mxGeometry>
        </mxCell>
        <mxCell id="6kGKdRxFfdWVgjmYEBeq-10" value="1.3.0" style="ellipse;whiteSpace=wrap;html=1;aspect=fixed;" vertex="1" parent="1">
          <mxGeometry x="600" y="610" width="50" height="50" as="geometry" />
        </mxCell>
        <mxCell id="6kGKdRxFfdWVgjmYEBeq-17" style="edgeStyle=orthogonalEdgeStyle;rounded=0;orthogonalLoop=1;jettySize=auto;html=1;exitX=1;exitY=0.5;exitDx=0;exitDy=0;" edge="1" parent="1" source="6kGKdRxFfdWVgjmYEBeq-13">
          <mxGeometry relative="1" as="geometry">
            <mxPoint x="879.9999999999998" y="550" as="targetPoint" />
          </mxGeometry>
        </mxCell>
        <mxCell id="6kGKdRxFfdWVgjmYEBeq-13" value="2.1.0" style="ellipse;whiteSpace=wrap;html=1;aspect=fixed;" vertex="1" parent="1">
          <mxGeometry x="800" y="430" width="50" height="50" as="geometry" />
        </mxCell>
        <mxCell id="6kGKdRxFfdWVgjmYEBeq-19" style="edgeStyle=orthogonalEdgeStyle;rounded=0;orthogonalLoop=1;jettySize=auto;html=1;exitX=1;exitY=0.5;exitDx=0;exitDy=0;entryX=0;entryY=0.5;entryDx=0;entryDy=0;" edge="1" parent="1" source="6kGKdRxFfdWVgjmYEBeq-15" target="6kGKdRxFfdWVgjmYEBeq-18">
          <mxGeometry relative="1" as="geometry" />
        </mxCell>
        <mxCell id="6kGKdRxFfdWVgjmYEBeq-15" value="3.0.0" style="ellipse;whiteSpace=wrap;html=1;aspect=fixed;" vertex="1" parent="1">
          <mxGeometry x="910" y="525" width="50" height="50" as="geometry" />
        </mxCell>
        <mxCell id="6kGKdRxFfdWVgjmYEBeq-18" value="4.0.0" style="ellipse;whiteSpace=wrap;html=1;aspect=fixed;" vertex="1" parent="1">
          <mxGeometry x="1030" y="525" width="50" height="50" as="geometry" />
        </mxCell>
      </root>
    </mxGraphModel>
  </diagram>
</mxfile>
